<?xml version="1.0" standalone="no"?>
<!DOCTYPE svg PUBLIC "-//W3C//DTD SVG 20010904//EN"
 "http://www.w3.org/TR/2001/REC-SVG-20010904/DTD/svg10.dtd">
<svg version="1.0" xmlns="http://www.w3.org/2000/svg"
 width="350.000000pt" height="350.000000pt" viewBox="0 0 350.000000 350.000000"
 preserveAspectRatio="xMidYMid meet">
<metadata>
Created by potrace 1.14, written by Peter Selinger 2001-2017
</metadata>
<g transform="translate(0.000000,350.000000) scale(0.100000,-0.100000)"
fill="#000000" stroke="none">
<path d="M623 2332 c5 -982 4 -958 67 -1144 37 -108 132 -295 197 -386 68 -98
245 -269 343 -334 155 -102 297 -164 435 -190 55 -10 70 -8 131 10 85 26 292
127 366 178 91 63 240 186 304 251 182 186 340 470 379 682 20 108 21 178 11
911 -5 360 -9 714 -10 785 l-1 130 -1113 2 -1114 1 5 -896z m2176 314 c1 -247
4 -452 6 -456 2 -4 5 -161 6 -351 1 -355 -2 -401 -46 -551 -42 -144 -213 -406
-358 -549 -208 -206 -559 -409 -707 -409 -97 0 -276 73 -432 176 -150 100
-426 406 -402 447 11 18 219 250 307 342 l76 80 1 -243 c0 -148 4 -251 10
-263 13 -24 32 -24 52 -1 13 15 14 53 6 302 -10 343 0 831 18 849 2 2 4 -221
4 -497 0 -325 3 -502 10 -502 6 0 11 179 12 503 l3 502 340 -4 c187 -2 342 -5
344 -7 2 -2 5 -262 7 -579 2 -317 6 -580 9 -585 11 -18 27 1 21 25 -8 30 -16
991 -9 1073 5 60 6 63 30 60 l24 -3 1 -670 c0 -394 5 -677 10 -688 5 -10 15
-16 21 -14 9 3 12 122 13 478 0 261 1 570 2 687 l2 212 29 0 c47 0 45 16 -9
54 -42 30 -58 51 -96 128 -31 64 -43 98 -37 110 4 9 136 162 293 340 157 178
317 360 355 405 55 66 71 79 76 65 4 -9 7 -219 8 -466z m-1619 358 c49 -20 70
-55 70 -118 0 -37 -4 -48 -24 -61 -35 -23 -62 -6 -70 44 -12 77 -76 102 -155
61 -51 -25 -78 -61 -95 -124 -18 -63 -29 -146 -21 -146 3 0 24 14 45 31 49 39
140 63 190 49 66 -18 120 -99 120 -178 0 -95 -43 -222 -107 -315 -28 -40 -151
-150 -195 -173 -23 -12 -29 -12 -49 5 -22 18 -22 18 -3 34 149 121 186 161
233 254 25 50 55 213 46 253 -3 16 -17 36 -30 44 -74 49 -168 -16 -246 -169
-17 -35 -40 -42 -63 -20 -29 30 -17 255 20 368 19 58 62 110 123 149 37 23 56
28 108 28 34 0 81 -7 103 -16z m713 -449 c71 -148 149 -315 174 -370 25 -56
56 -110 71 -122 l27 -22 -132 -1 c-131 0 -133 0 -134 23 -6 126 -5 138 10 147
12 7 -5 18 -71 49 l-88 41 0 39 c0 57 -18 60 -22 4 l-3 -48 -75 -25 c-119 -41
-114 -38 -97 -54 8 -8 13 -28 12 -45 -1 -17 -2 -51 -3 -76 l-2 -45 -79 0 c-43
0 -106 3 -140 7 l-63 6 44 27 c34 21 49 39 63 76 18 49 196 442 273 604 23 47
41 78 41 69 1 -9 -21 -131 -49 -270 -51 -259 -54 -276 -45 -267 3 3 19 72 35
154 51 257 73 359 80 373 7 14 13 -8 54 -199 8 -36 14 -58 15 -50 1 12 -22
148 -44 260 -5 23 -5 24 7 5 7 -11 70 -141 141 -290z m-77 -305 l65 -29 -3
-88 c-4 -105 8 -99 -175 -88 l-123 7 0 88 0 89 53 19 c28 11 59 22 67 25 29
11 51 7 116 -23z"/>
<path d="M2567 2384 c-4 -4 -7 -171 -7 -371 l0 -364 -30 16 c-38 19 -123 19
-165 -1 -18 -8 -47 -31 -64 -50 -17 -19 -42 -34 -54 -35 -21 -1 -20 -1 5 -13
14 -6 37 -24 49 -40 44 -55 146 -82 216 -55 15 5 49 31 75 56 25 25 51 43 56
39 6 -3 13 -2 17 4 3 5 -3 10 -14 10 -47 0 -48 5 -56 412 -4 211 -10 386 -14
391 -4 4 -10 4 -14 1z"/>
<path d="M1707 1904 c-4 -4 -7 -43 -7 -86 0 -72 2 -78 20 -78 20 0 21 5 18 82
-3 75 -12 100 -31 82z"/>
<path d="M1373 1529 c6 -256 9 -315 20 -298 1 2 1 136 -1 297 -2 208 -6 292
-14 292 -8 0 -9 -79 -5 -291z"/>
<path d="M1400 1514 c0 -161 3 -243 10 -239 6 4 10 97 10 246 0 153 -4 239
-10 239 -6 0 -10 -89 -10 -246z"/>
<path d="M1434 1520 c0 -113 1 -174 3 -137 3 59 6 67 18 57 13 -11 15 5 15
114 0 77 -4 126 -10 126 -6 0 -11 -34 -12 -77 l-2 -78 -6 100 c-5 74 -6 47 -6
-105z m13 -22 c-3 -8 -6 -5 -6 6 -1 11 2 17 5 13 3 -3 4 -12 1 -19z"/>
<path d="M1481 1565 c2 -102 19 -107 19 -6 0 49 -4 81 -10 81 -7 0 -10 -29 -9
-75z"/>
<path d="M1575 1517 c-14 -47 -14 -67 1 -82 9 -9 21 -14 27 -12 13 4 28 64 20
83 -6 17 -43 25 -48 11z"/>
<path d="M1572 1288 c-12 -12 -16 -65 -7 -90 4 -10 16 -13 35 -10 28 4 30 7
30 48 0 33 -5 46 -19 54 -24 13 -24 13 -39 -2z"/>
<path d="M1647 956 c-64 -23 -108 -69 -132 -135 -16 -46 -21 -257 -9 -333 7
-41 34 -53 34 -15 0 18 2 19 10 7 7 -11 10 -2 10 32 0 25 4 48 9 50 6 2 11 24
12 50 2 26 7 46 13 45 7 -1 13 25 16 63 4 44 7 57 11 40 4 -14 8 11 9 55 2 45
5 64 7 43 2 -21 8 -38 14 -38 5 0 9 17 10 38 0 30 2 33 9 17 8 -18 9 -18 9 -2
1 10 5 16 10 13 5 -3 11 1 15 9 8 21 33 19 71 -5 56 -35 68 -75 74 -253 5
-141 8 -160 25 -173 11 -7 22 -12 24 -9 9 9 1 357 -9 383 -18 47 -60 94 -103
113 -48 22 -87 23 -139 5z m-100 -308 c-3 -7 -5 -2 -5 12 0 14 2 19 5 13 2 -7
2 -19 0 -25z"/>
<path d="M1792 2540 c0 -14 2 -19 5 -12 2 6 2 18 0 25 -3 6 -5 1 -5 -13z"/>
<path d="M1801 2494 c0 -11 3 -14 6 -6 3 7 2 16 -1 19 -3 4 -6 -2 -5 -13z"/>
<path d="M1832 2350 c0 -14 2 -19 5 -12 2 6 2 18 0 25 -3 6 -5 1 -5 -13z"/>
<path d="M1650 2180 c0 -48 13 -56 87 -54 l48 1 0 44 0 44 -67 3 -68 3 0 -41z"/>
</g>
</svg>
